<svg width="35px" height="35px" viewBox="0 0 35 35" version="1.1" xmlns="http://www.w3.org/2000/svg" xmlns:xlink="http://www.w3.org/1999/xlink">
    <!-- Generator: Sketch 48.2 (47327) - http://www.bohemiancoding.com/sketch -->
    <desc>Created with Sketch.</desc>
    <defs></defs>
    <g id="Page-1" stroke="none" stroke-width="1" fill="none" fill-rule="evenodd">
        <g id="Main-Header" transform="translate(-543.000000, -27.000000)" fill-rule="nonzero">
            <g id="Layer_1" transform="translate(199.000000, 17.000000)">
                <rect id="Rectangle-path" fill="#3b5998" x="345" y="10.61" width="35" height="35"></rect>
                <path d="M371.31,31 C371.91,31 372.52,31 373.12,31 C373.3,31 373.6,30.84 373.62,30.7 C373.86,29.43 374.06,28.16 374.27,26.89 C374.27,26.84 374.27,26.77 374.21,26.66 L368.51,26.66 C368.51,25.45 368.51,24.29 368.51,23.14 C368.555085,22.708214 368.702496,22.293406 368.94,21.93 C369.371765,21.2757863 370.0874,20.8642035 370.87,20.82 C371.016527,20.8109531 371.163473,20.8109531 371.31,20.82 C372.84,20.82 372.84,20.82 372.84,19.25 C372.84,18.3766667 372.84,17.5033333 372.84,16.63 C372.84,16.51 372.78,16.51 372.74,16.51 C370.74,16.51 368.83,16.51 366.88,16.63 C364.07,16.85 362.82,18.93 362.7,21.52 C362.63,23 362.7,24.52 362.7,25.96 C362.7,26.16 362.7,26.37 362.7,26.65 L359.3,26.65 C358.3,26.65 358.3,26.65 358.3,27.58 C358.3,28.51 358.3,29.46 358.3,30.39 C358.3,30.95 358.49,31.05 358.98,31.04 C360.04,31.04 361.1,31.04 362.17,31.04 C362.48,31.04 362.68,31.11 362.68,31.49 C362.68,35.9033333 362.68,40.32 362.68,44.74 L362.68,45.67 L368.56,45.67 L368.56,31 L371.31,31 Z" id="Shape" fill="#FFFFFF"></path>
            </g>
        </g>
    </g>
</svg>
